# Blender 4.0.2
# www.blender.org
mtllib box.mtl
o Cube.004
v 0.520000 0.350000 -1.000000
v 0.520000 -1.000000 -1.000000
v 0.520000 0.350000 1.000000
v 0.520000 -1.000000 1.000000
v 0.470000 0.350000 -1.000000
v 0.470000 -1.000000 -1.000000
v 0.470000 0.350000 1.000000
v 0.470000 -1.000000 1.000000
v 0.000000 1.000000 -1.000000
v 0.000000 -1.000000 -1.000000
v 0.000000 1.000000 1.000000
v 0.000000 -1.000000 1.000000
v -0.050000 1.000000 -1.000000
v -0.050000 -1.000000 -1.000000
v -0.050000 1.000000 1.000000
v -0.050000 -1.000000 1.000000
v -0.050000 0.860111 0.033003
v -0.050000 0.850356 0.032042
v -0.050000 0.869865 0.032042
v -0.050000 0.840976 0.029197
v -0.050000 0.887889 0.024577
v -0.050000 0.832332 0.024577
v -0.050000 0.879245 0.029197
v -0.050000 0.824755 0.018358
v -0.050000 0.901684 0.010782
v -0.050000 0.811071 -0.007242
v -0.050000 0.813917 0.002137
v -0.050000 0.909150 -0.007242
v -0.050000 0.818537 0.010782
v -0.050000 0.906305 0.002137
v -0.050000 0.895466 0.018358
v -0.050000 0.811071 -0.026751
v -0.050000 0.909150 -0.026751
v -0.050000 0.818537 -0.044775
v -0.050000 0.901684 -0.044775
v -0.050000 0.813917 -0.036131
v -0.050000 0.906305 -0.036131
v -0.050000 0.832332 -0.058570
v -0.050000 0.887889 -0.058570
v -0.050000 0.860111 -0.066997
v -0.050000 0.869865 -0.066036
v -0.050000 0.850356 -0.066036
v -0.050000 0.879245 -0.063191
v -0.050000 0.840976 -0.063191
v -0.050000 0.895466 -0.052352
v -0.050000 0.824755 -0.052352
v -0.050000 0.910111 -0.016997
v -0.050000 0.810111 -0.016997
v 0.000000 0.860111 0.033003
v 0.000000 0.850356 0.032042
v 0.000000 0.869865 0.032042
v 0.000000 0.832332 0.024577
v 0.000000 0.887889 0.024577
v 0.000000 0.840976 0.029197
v 0.000000 0.879245 0.029197
v 0.000000 0.818537 0.010782
v 0.000000 0.901684 0.010782
v 0.000000 0.811071 -0.007242
v 0.000000 0.909150 -0.007242
v 0.000000 0.813917 0.002137
v 0.000000 0.906305 0.002137
v 0.000000 0.824755 0.018358
v 0.000000 0.895466 0.018358
v 0.000000 0.811071 -0.026751
v 0.000000 0.909150 -0.026751
v 0.000000 0.818537 -0.044775
v 0.000000 0.901684 -0.044775
v 0.000000 0.813917 -0.036131
v 0.000000 0.906305 -0.036131
v 0.000000 0.832332 -0.058570
v 0.000000 0.887889 -0.058570
v 0.000000 0.860111 -0.066997
v 0.000000 0.850356 -0.066036
v 0.000000 0.869865 -0.066036
v 0.000000 0.840976 -0.063191
v 0.000000 0.879245 -0.063191
v 0.000000 0.824755 -0.052352
v 0.000000 0.895466 -0.052352
v 0.000000 0.910111 -0.016997
v 0.000000 0.810111 -0.016997
v 0.520000 -1.040000 -1.000000
v -0.050000 -1.040000 -1.000000
v 0.520000 -1.040000 1.000000
v -0.050000 -1.040000 1.000000
v 0.520000 -0.990000 -1.000000
v -0.050000 -0.990000 -1.000000
v 0.520000 -0.990000 1.000000
v -0.050000 -0.990000 1.000000
v -0.030000 0.648739 1.003662
v -0.030000 -1.000000 1.010000
v 0.510000 0.350000 1.010000
v 0.510000 -1.000000 1.010000
v -0.030000 0.648739 0.953662
v -0.030000 -1.000000 0.960000
v 0.510000 0.350000 0.960000
v 0.510000 -1.000000 0.960000
v -0.030000 0.648739 -0.956338
v -0.030000 -1.000000 -0.950000
v 0.510000 0.350000 -0.950000
v 0.510000 -1.000000 -0.950000
v -0.030000 0.648739 -1.006338
v -0.030000 -1.000000 -1.000000
v 0.510000 0.350000 -1.000000
v 0.510000 -1.000000 -1.000000
v 0.519711 0.342206 -0.994227
v 0.519711 -0.992206 -0.994227
v 0.519711 0.342206 0.994227
v 0.519711 -0.992206 0.994227
v 0.470289 0.342206 -0.994227
v 0.470289 -0.992206 -0.994227
v 0.470289 0.342206 0.994227
v 0.470289 -0.992206 0.994227
v -0.000289 0.992206 -0.994227
v -0.000289 -0.992206 -0.994227
v -0.000289 0.992206 0.994227
v -0.000289 -0.992206 0.994227
v -0.049711 0.992206 -0.994227
v -0.049711 -0.992206 -0.994227
v -0.049711 0.992206 0.994227
v -0.049711 -0.992206 0.994227
v -0.049661 0.860111 0.040348
v -0.049660 0.847805 0.039132
v -0.049631 0.872214 0.038573
v -0.049659 0.836180 0.035595
v -0.049658 0.894461 0.030008
v -0.049658 0.825760 0.030008
v -0.049659 0.884041 0.035595
v -0.049657 0.816884 0.022702
v -0.049656 0.910449 0.014011
v -0.049655 0.801416 -0.006184
v -0.049655 0.804579 0.004270
v -0.049655 0.918806 -0.006184
v -0.049656 0.809772 0.014011
v -0.049655 0.915643 0.004270
v -0.049657 0.903337 0.022702
v -0.049655 0.801416 -0.027810
v -0.049655 0.918806 -0.027810
v -0.049656 0.809772 -0.048005
v -0.049656 0.910449 -0.048005
v -0.049655 0.804579 -0.038263
v -0.049655 0.915643 -0.038263
v -0.049658 0.825760 -0.064002
v -0.049658 0.894461 -0.064002
v -0.049661 0.860111 -0.074342
v -0.049631 0.872214 -0.072567
v -0.049660 0.847805 -0.073126
v -0.049659 0.884041 -0.069589
v -0.049659 0.836180 -0.069589
v -0.049657 0.903337 -0.056696
v -0.049657 0.816884 -0.056696
v -0.049654 0.919868 -0.016997
v -0.049654 0.800353 -0.016997
v -0.000339 0.860111 0.040348
v -0.000340 0.847805 0.039132
v -0.000369 0.872214 0.038573
v -0.000342 0.825760 0.030008
v -0.000342 0.894461 0.030008
v -0.000341 0.836180 0.035595
v -0.000341 0.884041 0.035595
v -0.000344 0.809772 0.014011
v -0.000344 0.910449 0.014011
v -0.000345 0.801416 -0.006184
v -0.000345 0.918806 -0.006184
v -0.000345 0.804579 0.004270
v -0.000345 0.915643 0.004270
v -0.000343 0.816884 0.022702
v -0.000343 0.903337 0.022702
v -0.000345 0.801416 -0.027810
v -0.000345 0.918806 -0.027810
v -0.000344 0.809772 -0.048005
v -0.000344 0.910449 -0.048005
v -0.000345 0.804579 -0.038263
v -0.000345 0.915643 -0.038263
v -0.000342 0.825760 -0.064002
v -0.000342 0.894461 -0.064002
v -0.000339 0.860111 -0.074342
v -0.000340 0.847805 -0.073126
v -0.000369 0.872214 -0.072567
v -0.000341 0.836180 -0.069589
v -0.000341 0.884041 -0.069589
v -0.000343 0.816884 -0.056696
v -0.000343 0.903337 -0.056696
v -0.000346 0.919868 -0.016997
v -0.000346 0.800353 -0.016997
v 0.519711 -1.032206 -0.994227
v -0.049711 -1.032206 -0.994227
v 0.519711 -1.032206 0.994227
v -0.049711 -1.032206 0.994227
v 0.519711 -0.997794 -0.994227
v -0.049711 -0.997794 -0.994227
v 0.519711 -0.997794 0.994227
v -0.049711 -0.997794 0.994227
v -0.030286 0.656627 1.009412
v -0.030288 -1.007787 1.015785
v 0.510291 0.357720 1.015780
v 0.510289 -1.007780 1.015779
v -0.030286 0.656613 0.947886
v -0.030289 -1.007801 0.954238
v 0.510292 0.357693 0.954211
v 0.510288 -1.007808 0.954233
v -0.030286 0.656627 -0.950588
v -0.030288 -1.007787 -0.944215
v 0.510291 0.357720 -0.944220
v 0.510289 -1.007780 -0.944220
v -0.030286 0.656613 -1.012114
v -0.030289 -1.007801 -1.005762
v 0.510292 0.357693 -1.005788
v 0.510288 -1.007808 -1.005767
vn -0.0000 1.0000 -0.0000
vn -0.0000 -0.0000 1.0000
vn -1.0000 -0.0000 -0.0000
vn -0.0000 -1.0000 -0.0000
vn 1.0000 -0.0000 -0.0000
vn -0.0000 -0.0000 -1.0000
vn -0.0000 0.0980 0.9952
vn -0.0000 0.2903 0.9569
vn -0.0000 0.4714 0.8819
vn -0.0000 0.6344 0.7730
vn -0.0000 0.7730 0.6344
vn -0.0000 0.8819 0.4714
vn -0.0000 0.9569 0.2903
vn -0.0000 0.9952 0.0980
vn -0.0000 0.9952 -0.0980
vn -0.0000 0.9569 -0.2903
vn -0.0000 0.8819 -0.4714
vn -0.0000 0.7730 -0.6344
vn -0.0000 0.6344 -0.7730
vn -0.0000 0.4714 -0.8819
vn -0.0000 0.2903 -0.9569
vn -0.0000 0.0980 -0.9952
vn -0.0000 -0.0980 -0.9952
vn -0.0000 -0.2903 -0.9569
vn -0.0000 -0.4714 -0.8819
vn -0.0000 -0.6344 -0.7730
vn -0.0000 -0.7730 -0.6344
vn -0.0000 -0.8819 -0.4714
vn -0.0000 -0.9569 -0.2903
vn -0.0000 -0.9952 -0.0980
vn -0.0000 -0.9952 0.0980
vn -0.0000 -0.9569 0.2903
vn -0.0000 -0.8819 0.4714
vn -0.0000 -0.7730 0.6344
vn -0.0000 -0.6344 0.7730
vn -0.0000 -0.4714 0.8819
vn -0.0000 -0.2903 0.9569
vn -0.0000 -0.0980 0.9952
vn -0.4841 -0.8750 -0.0000
vn -0.0053 0.0021 1.0000
vn 0.0053 -0.0021 -1.0000
vn 1.0000 0.0007 -0.0000
vn -1.0000 0.0007 -0.0000
vn -0.0000 -0.0983 -0.9952
vn -0.0000 -0.2911 -0.9567
vn -0.0000 -0.4725 -0.8813
vn -0.0000 -0.6355 -0.7721
vn -0.0000 -0.7739 -0.6333
vn -0.0000 -0.8824 -0.4704
vn -0.0000 -0.9571 -0.2896
vn -0.0000 -0.9952 -0.0978
vn -0.0000 -0.9952 0.0978
vn -0.0000 -0.9571 0.2896
vn -0.0000 -0.8824 0.4704
vn -0.0000 -0.7739 0.6333
vn -0.0000 -0.6355 0.7721
vn -0.0000 -0.4725 0.8813
vn -0.0000 -0.2911 0.9567
vn -0.0000 -0.0983 0.9952
vn -0.0000 0.1451 0.9894
vn -0.0000 0.2442 0.9697
vn -0.0000 0.4725 0.8813
vn -0.0000 0.6355 0.7721
vn -0.0000 0.7739 0.6333
vn -0.0000 0.8824 0.4704
vn -0.0000 0.9571 0.2896
vn -0.0000 0.9952 0.0978
vn -0.0000 0.9952 -0.0978
vn -0.0000 0.9571 -0.2896
vn -0.0000 0.8824 -0.4704
vn -0.0000 0.7739 -0.6333
vn -0.0000 0.6355 -0.7721
vn -0.0000 0.4725 -0.8813
vn -0.0000 0.2442 -0.9697
vn -0.0000 0.1451 -0.9894
vn 0.4839 0.8751 -0.0003
vn -0.0000 -1.0000 0.0003
vt 0.625000 0.500000
vt 0.875000 0.500000
vt 0.875000 0.750000
vt 0.625000 0.750000
vt 0.375000 0.750000
vt 0.625000 1.000000
vt 0.375000 1.000000
vt 0.375000 0.000000
vt 0.625000 0.000000
vt 0.625000 0.250000
vt 0.375000 0.250000
vt 0.125000 0.500000
vt 0.375000 0.500000
vt 0.125000 0.750000
vt 0.608733 0.120995
vt 0.608733 0.133255
vt 0.609906 0.132899
vt 0.610986 0.132321
vt 0.611933 0.131544
vt 0.612711 0.130597
vt 0.613288 0.129516
vt 0.613644 0.128344
vt 0.613764 0.127125
vt 0.613644 0.125905
vt 0.613288 0.124733
vt 0.612711 0.123652
vt 0.611933 0.122705
vt 0.610986 0.121928
vt 0.609906 0.121350
vt 0.607514 0.120875
vt 0.606295 0.120995
vt 0.605122 0.121350
vt 0.604042 0.121928
vt 0.603094 0.122705
vt 0.602317 0.123652
vt 0.601740 0.124733
vt 0.601384 0.125905
vt 0.601264 0.127125
vt 0.601384 0.128344
vt 0.601740 0.129516
vt 0.602317 0.130597
vt 0.603094 0.131544
vt 0.604042 0.132321
vt 0.605122 0.132899
vt 0.606295 0.133255
vt 0.607514 0.133375
vt 0.608733 0.616745
vt 0.607514 0.616625
vt 0.606295 0.616745
vt 0.605122 0.617101
vt 0.604042 0.617679
vt 0.603094 0.618456
vt 0.602317 0.619403
vt 0.601740 0.620484
vt 0.601384 0.621656
vt 0.601264 0.622875
vt 0.601384 0.624095
vt 0.601740 0.625267
vt 0.602317 0.626348
vt 0.603094 0.627295
vt 0.604042 0.628072
vt 0.605122 0.628650
vt 0.606294 0.629005
vt 0.607514 0.629125
vt 0.608733 0.629005
vt 0.609906 0.628650
vt 0.610986 0.628072
vt 0.611933 0.627295
vt 0.612711 0.626348
vt 0.613288 0.625267
vt 0.613644 0.624095
vt 0.613764 0.622875
vt 0.613644 0.621656
vt 0.613288 0.620484
vt 0.612711 0.619403
vt 0.611933 0.618456
vt 0.610986 0.617679
vt 0.609906 0.617101
vt 1.000000 0.610678
vt 0.968750 0.610678
vt 0.968750 0.623178
vt 1.000000 0.623178
vt 0.937500 0.610678
vt 0.937500 0.623178
vt 0.906250 0.610678
vt 0.906250 0.623178
vt 0.875000 0.610678
vt 0.875000 0.623178
vt 0.843750 0.610678
vt 0.843750 0.623178
vt 0.812500 0.610678
vt 0.812500 0.623178
vt 0.781250 0.610678
vt 0.781250 0.623178
vt 0.750000 0.610678
vt 0.750000 0.623178
vt 0.718750 0.610678
vt 0.718750 0.623178
vt 0.687500 0.610678
vt 0.687500 0.623178
vt 0.656250 0.610678
vt 0.656250 0.623178
vt 0.625000 0.610678
vt 0.625000 0.623178
vt 0.593750 0.610678
vt 0.593750 0.623178
vt 0.562500 0.610678
vt 0.562500 0.623178
vt 0.531250 0.610678
vt 0.531250 0.623178
vt 0.500000 0.610678
vt 0.500000 0.623178
vt 0.468750 0.610678
vt 0.468750 0.623178
vt 0.437500 0.610678
vt 0.437500 0.623178
vt 0.406250 0.610678
vt 0.406250 0.623178
vt 0.375000 0.610678
vt 0.375000 0.623178
vt 0.343750 0.610678
vt 0.343750 0.623178
vt 0.312500 0.610678
vt 0.312500 0.623178
vt 0.281250 0.610678
vt 0.281250 0.623178
vt 0.250000 0.610678
vt 0.250000 0.623178
vt 0.218750 0.610678
vt 0.218750 0.623178
vt 0.187500 0.610678
vt 0.187500 0.623178
vt 0.156250 0.610678
vt 0.156250 0.623178
vt 0.125000 0.610678
vt 0.125000 0.623178
vt 0.093750 0.610678
vt 0.093750 0.623178
vt 0.062500 0.610678
vt 0.062500 0.623178
vt 0.031250 0.610678
vt 0.031250 0.623178
vt 0.000000 0.610678
vt 0.000000 0.623178
s 0
usemtl Material.005
f 1/1/1 5/2/1 7/3/1 3/4/1
f 4/5/2 3/4/2 7/6/2 8/7/2
f 8/8/3 7/9/3 5/10/3 6/11/3
f 6/12/4 2/13/4 4/5/4 8/14/4
f 2/13/5 1/1/5 3/4/5 4/5/5
f 6/11/6 5/10/6 1/1/6 2/13/6
f 105/1/4 107/4/4 111/3/4 109/2/4
f 108/5/6 112/7/6 111/6/6 107/4/6
f 112/8/5 110/11/5 109/10/5 111/9/5
f 110/12/1 112/14/1 108/5/1 106/13/1
f 106/13/3 108/5/3 107/4/3 105/1/3
f 110/11/2 106/13/2 105/1/2 109/10/2
usemtl Material
f 9/1/1 13/2/1 15/3/1 11/4/1
f 12/5/2 11/4/2 15/6/2 16/7/2
f 19/15/3 15/9/3 13/10/3 41/16/3 43/17/3 39/18/3 45/19/3 35/20/3 37/21/3 33/22/3 47/23/3 28/24/3 30/25/3 25/26/3 31/27/3 21/28/3 23/29/3
f 41/16/3 13/10/3 14/11/3 16/8/3 15/9/3 19/15/3 17/30/3 18/31/3 20/32/3 22/33/3 24/34/3 29/35/3 27/36/3 26/37/3 48/38/3 32/39/3 36/40/3 34/41/3 46/42/3 38/43/3 44/44/3 42/45/3 40/46/3
f 14/12/4 10/13/4 12/5/4 16/14/4
f 11/4/5 12/5/5 10/13/5 9/1/5 74/47/5 72/48/5 73/49/5 75/50/5 70/51/5 77/52/5 66/53/5 68/54/5 64/55/5 80/56/5 58/57/5 60/58/5 56/59/5 62/60/5 52/61/5 54/62/5 50/63/5 49/64/5 51/65/5
f 74/47/5 9/1/5 11/4/5 51/65/5 55/66/5 53/67/5 63/68/5 57/69/5 61/70/5 59/71/5 79/72/5 65/73/5 69/74/5 67/75/5 78/76/5 71/77/5 76/78/5
f 14/11/6 13/10/6 9/1/6 10/13/6
f 40/79/7 42/80/7 73/81/7 72/82/7
f 42/80/8 44/83/8 75/84/8 73/81/8
f 44/83/9 38/85/9 70/86/9 75/84/9
f 38/85/10 46/87/10 77/88/10 70/86/10
f 46/87/11 34/89/11 66/90/11 77/88/11
f 34/89/12 36/91/12 68/92/12 66/90/12
f 36/91/13 32/93/13 64/94/13 68/92/13
f 32/93/14 48/95/14 80/96/14 64/94/14
f 48/95/15 26/97/15 58/98/15 80/96/15
f 26/97/16 27/99/16 60/100/16 58/98/16
f 27/99/17 29/101/17 56/102/17 60/100/17
f 29/101/18 24/103/18 62/104/18 56/102/18
f 22/105/19 52/106/19 62/104/19 24/103/19
f 20/107/20 54/108/20 52/106/20 22/105/20
f 18/109/21 50/110/21 54/108/21 20/107/21
f 17/111/22 49/112/22 50/110/22 18/109/22
f 19/113/23 51/114/23 49/112/23 17/111/23
f 23/115/24 55/116/24 51/114/24 19/113/24
f 21/117/25 53/118/25 55/116/25 23/115/25
f 31/119/26 63/120/26 53/118/26 21/117/26
f 25/121/27 57/122/27 63/120/27 31/119/27
f 30/123/28 61/124/28 57/122/28 25/121/28
f 28/125/29 59/126/29 61/124/29 30/123/29
f 47/127/30 79/128/30 59/126/30 28/125/30
f 33/129/31 65/130/31 79/128/31 47/127/31
f 37/131/32 69/132/32 65/130/32 33/129/32
f 35/133/33 67/134/33 69/132/33 37/131/33
f 45/135/34 78/136/34 67/134/34 35/133/34
f 45/135/35 39/137/35 71/138/35 78/136/35
f 39/137/36 43/139/36 76/140/36 71/138/36
f 43/139/37 41/141/37 74/142/37 76/140/37
f 41/141/38 40/143/38 72/144/38 74/142/38
f 113/1/4 115/4/4 119/3/4 117/2/4
f 116/5/6 120/7/6 119/6/6 115/4/6
f 123/15/42 127/29/42 125/28/42 135/27/42 129/26/42 134/25/42 132/24/42 151/23/42 137/22/42 141/21/42 139/20/42 149/19/42 143/18/42 147/17/42 145/16/42 117/10/42 119/9/42
f 145/16/5 144/46/5 146/45/5 148/44/5 142/43/5 150/42/5 138/41/5 140/40/5 136/39/5 152/38/5 130/37/5 131/36/5 133/35/5 128/34/5 126/33/5 124/32/5 122/31/5 121/30/5 123/15/5 119/9/5 120/8/5 118/11/5 117/10/5
f 118/12/1 120/14/1 116/5/1 114/13/1
f 115/4/3 155/65/3 153/64/3 154/63/3 158/62/3 156/61/3 166/60/3 160/59/3 164/58/3 162/57/3 184/56/3 168/55/3 172/54/3 170/53/3 181/52/3 174/51/3 179/50/3 177/49/3 176/48/3 178/47/3 113/1/3 114/13/3 116/5/3
f 178/47/43 180/78/43 175/77/43 182/76/43 171/75/43 173/74/43 169/73/43 183/72/43 163/71/43 165/70/43 161/69/43 167/68/43 157/67/43 159/66/43 155/65/43 115/4/43 113/1/43
f 118/11/2 114/13/2 113/1/2 117/10/2
f 144/79/44 176/82/44 177/81/44 146/80/44
f 146/80/45 177/81/45 179/84/45 148/83/45
f 148/83/46 179/84/46 174/86/46 142/85/46
f 142/85/47 174/86/47 181/88/47 150/87/47
f 150/87/48 181/88/48 170/90/48 138/89/48
f 138/89/49 170/90/49 172/92/49 140/91/49
f 140/91/50 172/92/50 168/94/50 136/93/50
f 136/93/51 168/94/51 184/96/51 152/95/51
f 152/95/52 184/96/52 162/98/52 130/97/52
f 130/97/53 162/98/53 164/100/53 131/99/53
f 131/99/54 164/100/54 160/102/54 133/101/54
f 133/101/55 160/102/55 166/104/55 128/103/55
f 126/105/56 128/103/56 166/104/56 156/106/56
f 124/107/57 126/105/57 156/106/57 158/108/57
f 122/109/58 124/107/58 158/108/58 154/110/58
f 121/111/59 122/109/59 154/110/59 153/112/59
f 123/113/60 121/111/60 153/112/60 155/114/60
f 127/115/61 123/113/61 155/114/61 159/116/61
f 125/117/62 127/115/62 159/116/62 157/118/62
f 135/119/63 125/117/63 157/118/63 167/120/63
f 129/121/64 135/119/64 167/120/64 161/122/64
f 134/123/65 129/121/65 161/122/65 165/124/65
f 132/125/66 134/123/66 165/124/66 163/126/66
f 151/127/67 132/125/67 163/126/67 183/128/67
f 137/129/68 151/127/68 183/128/68 169/130/68
f 141/131/69 137/129/69 169/130/69 173/132/69
f 139/133/70 141/131/70 173/132/70 171/134/70
f 149/135/71 139/133/71 171/134/71 182/136/71
f 149/135/72 182/136/72 175/138/72 143/137/72
f 143/137/73 175/138/73 180/140/73 147/139/73
f 147/139/74 180/140/74 178/142/74 145/141/74
f 145/141/75 178/142/75 176/144/75 144/143/75
usemtl Material.002
f 81/1/5 85/2/5 87/3/5 83/4/5
f 84/5/2 83/4/2 87/6/2 88/7/2
f 88/8/1 87/9/1 85/10/1 86/11/1
f 86/12/3 82/13/3 84/5/3 88/14/3
f 82/13/4 81/1/4 83/4/4 84/5/4
f 86/11/6 85/10/6 81/1/6 82/13/6
f 185/1/3 187/4/3 191/3/3 189/2/3
f 188/5/6 192/7/6 191/6/6 187/4/6
f 192/8/4 190/11/4 189/10/4 191/9/4
f 190/12/5 192/14/5 188/5/5 186/13/5
f 186/13/1 188/5/1 187/4/1 185/1/1
f 190/11/2 186/13/2 185/1/2 189/10/2
usemtl Material.003
f 89/1/39 93/2/39 95/3/39 91/4/39
f 92/5/3 91/4/3 95/6/3 96/7/3
f 96/8/40 95/9/40 93/10/40 94/11/40
f 94/12/1 90/13/1 92/5/1 96/14/1
f 90/13/41 89/1/41 91/4/41 92/5/41
f 94/11/5 93/10/5 89/1/5 90/13/5
f 193/1/76 195/4/76 199/3/76 197/2/76
f 196/5/5 200/7/5 199/6/5 195/4/5
f 200/8/41 198/11/41 197/10/41 199/9/41
f 198/12/77 200/14/77 196/5/77 194/13/77
f 194/13/40 196/5/40 195/4/40 193/1/40
f 198/11/3 194/13/3 193/1/3 197/10/3
usemtl Material.004
f 97/1/39 101/2/39 103/3/39 99/4/39
f 100/5/3 99/4/3 103/6/3 104/7/3
f 104/8/40 103/9/40 101/10/40 102/11/40
f 102/12/1 98/13/1 100/5/1 104/14/1
f 98/13/41 97/1/41 99/4/41 100/5/41
f 102/11/5 101/10/5 97/1/5 98/13/5
f 201/1/76 203/4/76 207/3/76 205/2/76
f 204/5/5 208/7/5 207/6/5 203/4/5
f 208/8/41 206/11/41 205/10/41 207/9/41
f 206/12/77 208/14/77 204/5/77 202/13/77
f 202/13/40 204/5/40 203/4/40 201/1/40
f 206/11/3 202/13/3 201/1/3 205/10/3
