# Blender 4.0.2
# www.blender.org
mtllib devit card1.mtl
o Cube
v 2.855288 0.159679 -0.845471
v 2.608566 0.159679 -1.154620
v 2.843213 0.159679 -1.016481
v 2.808168 0.159679 -1.090863
v 2.753585 0.159679 -1.125081
v 2.684807 0.159679 -1.147050
v 2.608566 0.201982 -1.154620
v 2.855288 0.201982 -0.845471
v 2.684807 0.201982 -1.147050
v 2.753585 0.201982 -1.125081
v 2.808168 0.201982 -1.090863
v 2.843213 0.201982 -1.016481
v 2.608566 0.159677 2.539282
v 2.855288 0.159677 2.291925
v 2.684807 0.159677 2.531712
v 2.753585 0.159677 2.509743
v 2.808168 0.159677 2.475525
v 2.843213 0.159677 2.413649
v 2.855288 0.201980 2.291925
v 2.608566 0.201980 2.539282
v 2.843213 0.201980 2.413649
v 2.808168 0.201980 2.475525
v 2.753585 0.201980 2.509743
v 2.684807 0.201980 2.531712
v -2.790364 0.159679 -1.154620
v -3.037086 0.159679 -0.845471
v -2.866605 0.159679 -1.147050
v -2.935383 0.159679 -1.125081
v -2.989966 0.159679 -1.090863
v -3.025010 0.159679 -1.016481
v -3.037086 0.201982 -0.845471
v -2.790364 0.201982 -1.154620
v -3.025010 0.201982 -1.016481
v -2.989966 0.201982 -1.090863
v -2.935383 0.201982 -1.125081
v -2.866605 0.201982 -1.147050
v -3.037086 0.159677 2.291925
v -2.790364 0.159677 2.539282
v -3.025010 0.159677 2.413649
v -2.989966 0.159677 2.475525
v -2.935383 0.159677 2.509743
v -2.866605 0.159677 2.531712
v -2.790364 0.201980 2.539282
v -3.037086 0.201980 2.291925
v -2.866605 0.201980 2.531712
v -2.935383 0.201980 2.509743
v -2.989966 0.201980 2.475525
v -3.025010 0.201980 2.413649
v 2.855288 0.159363 1.157371
v 2.855288 0.159363 2.105775
v -3.037085 0.159363 1.157371
v -3.037085 0.159363 2.105775
vn -0.0000 1.0000 -0.0000
vn -1.0000 -0.0000 -0.0000
vn -0.0000 -0.0000 1.0000
vn -0.0000 -1.0000 -0.0000
vn 1.0000 -0.0000 -0.0000
vn 0.9975 -0.0000 -0.0704
vn 0.9046 -0.0000 -0.4262
vn 0.5312 -0.0000 -0.8473
vn 0.3043 -0.0000 -0.9526
vn 0.0988 -0.0000 -0.9951
vn -0.0988 -0.0000 0.9951
vn -0.3043 -0.0000 0.9526
vn -0.5312 -0.0000 0.8473
vn -0.8701 -0.0000 0.4928
vn -0.9951 -0.0000 0.0987
vn 0.0988 -0.0000 0.9951
vn 0.3043 -0.0000 0.9526
vn 0.5312 -0.0000 0.8473
vn 0.8701 -0.0000 0.4928
vn 0.9951 -0.0000 0.0987
vn -0.0988 -0.0000 -0.9951
vn -0.3043 -0.0000 -0.9526
vn -0.5312 -0.0000 -0.8473
vn -0.9046 -0.0000 -0.4262
vn -0.9975 -0.0000 -0.0704
vn -0.0000 -0.0000 -1.0000
vt 0.133388 0.950309
vt 0.134903 0.971768
vt 0.139301 0.981103
vt 0.146151 0.985397
vt 0.154781 0.988153
vt 0.164349 0.989103
vt 0.841852 0.989103
vt 0.851419 0.988153
vt 0.860050 0.985397
vt 0.866900 0.981103
vt 0.871297 0.971768
vt 0.872813 0.950309
vt 0.872813 0.556602
vt 0.871297 0.541327
vt 0.866900 0.533562
vt 0.860050 0.529269
vt 0.851419 0.526512
vt 0.841852 0.525562
vt 0.164349 0.525562
vt 0.154781 0.526512
vt 0.146151 0.529269
vt 0.139301 0.533562
vt 0.134903 0.541327
vt 0.133388 0.556602
vt -0.120438 0.350564
vt -0.059249 0.350564
vt -0.059249 0.406629
vt -0.120438 0.406629
vt -0.120438 0.534130
vt -0.059249 0.534130
vt -0.059249 0.590195
vt -0.120438 0.590195
vt 0.858292 0.099799
vt 0.856817 0.078912
vt 0.852536 0.069827
vt 0.845870 0.065648
vt 0.837469 0.062965
vt 0.828157 0.062040
vt 0.168742 0.062040
vt 0.159430 0.062965
vt 0.151030 0.065648
vt 0.144363 0.069827
vt 0.140083 0.078912
vt 0.138608 0.099799
vt 0.138608 0.482994
vt 0.140083 0.497862
vt 0.144363 0.505419
vt 0.151030 0.509598
vt 0.159430 0.512282
vt 0.168742 0.513206
vt 0.828157 0.513206
vt 0.837469 0.512282
vt 0.845870 0.509598
vt 0.852536 0.505419
vt 0.856817 0.497862
vt 0.858292 0.482994
vt -0.120438 0.472941
vt -0.059249 0.472941
vt -0.059249 0.529006
vt -0.120438 0.529006
vt -0.120480 0.472150
vt -0.059208 0.472150
vt -0.120601 0.471436
vt -0.059086 0.471436
vt -0.120790 0.469838
vt -0.058897 0.469838
vt -0.121028 0.469241
vt -0.058659 0.469241
vt -0.120438 0.467817
vt -0.059249 0.467817
vt -0.059249 0.590986
vt -0.120438 0.590986
vt -0.059249 0.591701
vt -0.120438 0.591701
vt -0.059249 0.592757
vt -0.120438 0.592757
vt -0.120438 0.349058
vt -0.059249 0.349058
vt -0.059249 0.349772
vt -0.120438 0.349772
vt -0.121028 0.532707
vt -0.058659 0.532707
vt -0.120790 0.532109
vt -0.058897 0.532109
vt -0.120601 0.530512
vt -0.059086 0.530512
vt -0.120480 0.529798
vt -0.059208 0.529798
vt -0.059249 0.411753
vt -0.120438 0.411753
vt -0.140244 0.430809
vt -0.039443 0.430809
vt -0.140482 0.430454
vt -0.039205 0.430454
vt -0.140671 0.429235
vt -0.039016 0.429235
vt -0.140792 0.428997
vt -0.038895 0.428997
s 0
usemtl Material.001
f 31/1/1 44/24/1 48/23/1 47/22/1 46/21/1 45/20/1 43/19/1 20/18/1 24/17/1 23/16/1 22/15/1 21/14/1 19/13/1 8/12/1 12/11/1 11/10/1 10/9/1 9/8/1 7/7/1 32/6/1 36/5/1 35/4/1 34/3/1 33/2/1
f 1/33/4 14/56/4 18/55/4 17/54/4 16/53/4 15/52/4 13/51/4 38/50/4 42/49/4 41/48/4 40/47/4 39/46/4 37/45/4 26/44/4 30/43/4 29/42/4 28/41/4 27/40/4 25/39/4 2/38/4 6/37/4 5/36/4 4/35/4 3/34/4
usemtl Material.004
f 44/25/2 31/28/2 26/27/2 37/26/2
f 20/29/3 43/32/3 38/31/3 13/30/3
f 8/57/5 19/60/5 14/59/5 1/58/5
f 1/58/6 3/62/6 12/61/6 8/57/6
f 3/62/7 4/64/7 11/63/7 12/61/7
f 4/64/8 5/66/8 10/65/8 11/63/8
f 5/66/9 6/68/9 9/67/9 10/65/9
f 6/68/10 2/70/10 7/69/10 9/67/10
f 43/32/11 45/72/11 42/71/11 38/31/11
f 45/72/12 46/74/12 41/73/12 42/71/12
f 46/74/13 47/76/13 40/75/13 41/73/13
f 47/77/14 48/80/14 39/79/14 40/78/14
f 48/80/15 44/25/15 37/26/15 39/79/15
f 13/30/16 15/82/16 24/81/16 20/29/16
f 15/82/17 16/84/17 23/83/17 24/81/17
f 16/84/18 17/86/18 22/85/18 23/83/18
f 17/86/19 18/88/19 21/87/19 22/85/19
f 18/88/20 14/59/20 19/60/20 21/87/20
f 25/89/21 27/92/21 36/91/21 32/90/21
f 27/92/22 28/94/22 35/93/22 36/91/22
f 28/94/23 29/96/23 34/95/23 35/93/23
f 29/96/24 30/98/24 33/97/24 34/95/24
f 30/98/25 26/27/25 31/28/25 33/97/25
f 32/90/26 7/69/26 2/70/26 25/89/26
usemtl Material
f 49/33/4 50/56/4 52/45/4 51/44/4
