# Blender 4.0.2
# www.blender.org
mtllib rippedPaper4.mtl
o Plane.001
v -1.132022 0.262155 1.109361
v -1.132022 0.262155 0.087756
v -0.420599 0.262155 1.109361
v -0.538989 0.033260 0.435772
v -1.132022 0.262155 0.343158
v -1.132022 0.262155 0.598559
v -1.132022 0.262155 0.853960
v -0.954166 0.262155 1.109361
v -0.776311 0.262155 1.109361
v -0.598455 0.262155 1.109361
v -1.132022 0.252155 1.109361
v -1.135249 0.252825 0.088889
v -0.423826 0.252825 1.110493
v -0.542215 0.023930 0.436904
v -1.134800 0.252647 0.344133
v -1.132022 0.252155 0.598559
v -1.132022 0.252155 0.853960
v -0.954166 0.252155 1.109361
v -0.776311 0.252155 1.109361
v -0.600572 0.252438 1.110104
vn 0.3187 0.9215 -0.2219
vn -0.0000 1.0000 -0.0000
vn -0.3188 -0.9215 0.2219
vn -0.0000 -1.0000 -0.0000
vn 0.0021 -1.0000 -0.0016
vn -1.0000 -0.0000 -0.0000
vn -0.0012 0.0983 0.9952
vn 0.4164 -0.2501 -0.8741
vn 0.9418 -0.3321 -0.0527
vn -0.9527 0.3038 0.0009
vn -0.9900 0.1413 0.0055
vn -0.0000 -0.0000 1.0000
vn -0.0021 0.0379 0.9993
vt 0.266784 0.000000
vt 0.355711 0.000000
vt 0.296517 0.474301
vt 0.000000 0.719440
vt 0.000000 0.539580
vt 0.000000 0.000000
vt 0.088928 0.000000
vt 0.000000 0.179860
vt 0.177856 0.000000
vt 0.000000 0.359720
s 0
f 10/1/1 3/2/1 4/3/1 2/4/1 5/5/1
f 1/6/2 8/7/2 7/8/2
f 8/7/2 9/9/2 6/10/2 7/8/2
f 9/9/2 10/1/2 5/5/2 6/10/2
f 20/1/3 15/5/3 12/4/3 14/3/3 13/2/3
f 11/6/4 17/8/4 18/7/4
f 18/7/4 17/8/4 16/10/4 19/9/4
f 19/9/5 16/10/5 15/5/5 20/1/5
f 1/6/6 7/8/6 17/8/6 11/6/6
f 3/2/7 10/1/7 20/1/7 13/2/7
f 2/4/8 4/3/8 14/3/8 12/4/8
f 4/3/9 3/2/9 13/2/9 14/3/9
f 5/5/10 2/4/10 12/4/10 15/5/10
f 6/10/11 5/5/11 15/5/11 16/10/11
f 7/8/6 6/10/6 16/10/6 17/8/6
f 8/7/12 1/6/12 11/6/12 18/7/12
f 9/9/12 8/7/12 18/7/12 19/9/12
f 10/1/13 9/9/13 19/9/13 20/1/13
