# Blender 4.0.2
# www.blender.org
mtllib saltCap.mtl
o Cylinder.001
v 0.000000 0.497007 -0.200000
v 0.000000 0.697007 -0.200000
v 0.039018 0.497007 -0.196157
v 0.039018 0.697007 -0.196157
v 0.076537 0.497007 -0.184776
v 0.076537 0.697007 -0.184776
v 0.111114 0.497007 -0.166294
v 0.111114 0.697007 -0.166294
v 0.141421 0.497007 -0.141421
v 0.141421 0.697007 -0.141421
v 0.166294 0.497007 -0.111114
v 0.166294 0.697007 -0.111114
v 0.184776 0.497007 -0.076537
v 0.184776 0.697007 -0.076537
v 0.196157 0.497007 -0.039018
v 0.196157 0.697007 -0.039018
v 0.200000 0.497007 0.000000
v 0.200000 0.697007 0.000000
v 0.196157 0.497007 0.039018
v 0.196157 0.697007 0.039018
v 0.184776 0.497007 0.076537
v 0.184776 0.697007 0.076537
v 0.166294 0.497007 0.111114
v 0.166294 0.697007 0.111114
v 0.141421 0.497007 0.141421
v 0.141421 0.697007 0.141421
v 0.111114 0.497007 0.166294
v 0.111114 0.697007 0.166294
v 0.076537 0.497007 0.184776
v 0.076537 0.697007 0.184776
v 0.039018 0.497007 0.196157
v 0.039018 0.697007 0.196157
v 0.000000 0.497007 0.200000
v 0.000000 0.697007 0.200000
v -0.039018 0.497007 0.196157
v -0.039018 0.697007 0.196157
v -0.076537 0.497007 0.184776
v -0.076537 0.697007 0.184776
v -0.111114 0.497007 0.166294
v -0.111114 0.697007 0.166294
v -0.141421 0.497007 0.141421
v -0.141421 0.697007 0.141421
v -0.166294 0.497007 0.111114
v -0.166294 0.697007 0.111114
v -0.184776 0.497007 0.076537
v -0.184776 0.697007 0.076537
v -0.196157 0.497007 0.039018
v -0.196157 0.697007 0.039018
v -0.200000 0.497007 0.000000
v -0.200000 0.697007 0.000000
v -0.196157 0.497007 -0.039018
v -0.196157 0.697007 -0.039018
v -0.184776 0.497007 -0.076537
v -0.184776 0.697007 -0.076537
v -0.166294 0.497007 -0.111114
v -0.166294 0.697007 -0.111114
v -0.141421 0.497007 -0.141421
v -0.141421 0.697007 -0.141421
v -0.111114 0.497007 -0.166294
v -0.111114 0.697007 -0.166294
v -0.076537 0.497007 -0.184776
v -0.076537 0.697007 -0.184776
v -0.039018 0.497007 -0.196157
v -0.039018 0.697007 -0.196157
v 0.000000 0.557007 -0.220000
v 0.000000 0.577007 -0.220000
v 0.042920 0.557007 -0.215773
v 0.042920 0.577007 -0.215773
v 0.084190 0.557007 -0.203254
v 0.084190 0.577007 -0.203254
v 0.122225 0.557007 -0.182923
v 0.122225 0.577007 -0.182923
v 0.155564 0.557007 -0.155564
v 0.155564 0.577007 -0.155564
v 0.182923 0.557007 -0.122225
v 0.182923 0.577007 -0.122225
v 0.203254 0.557007 -0.084190
v 0.203254 0.577007 -0.084190
v 0.215773 0.557007 -0.042920
v 0.215773 0.577007 -0.042920
v 0.220000 0.557007 0.000000
v 0.220000 0.577007 0.000000
v 0.215773 0.557007 0.042920
v 0.215773 0.577007 0.042920
v 0.203254 0.557007 0.084190
v 0.203254 0.577007 0.084190
v 0.182923 0.557007 0.122225
v 0.182923 0.577007 0.122225
v 0.155564 0.557007 0.155564
v 0.155564 0.577007 0.155564
v 0.122225 0.557007 0.182923
v 0.122225 0.577007 0.182923
v 0.084190 0.557007 0.203254
v 0.084190 0.577007 0.203254
v 0.042920 0.557007 0.215773
v 0.042920 0.577007 0.215773
v 0.000000 0.557007 0.220000
v 0.000000 0.577007 0.220000
v -0.042920 0.557007 0.215773
v -0.042920 0.577007 0.215773
v -0.084190 0.557007 0.203254
v -0.084190 0.577007 0.203254
v -0.122225 0.557007 0.182923
v -0.122225 0.577007 0.182923
v -0.155564 0.557007 0.155564
v -0.155564 0.577007 0.155564
v -0.182923 0.557007 0.122225
v -0.182923 0.577007 0.122225
v -0.203254 0.557007 0.084190
v -0.203254 0.577007 0.084190
v -0.215773 0.557007 0.042920
v -0.215773 0.577007 0.042920
v -0.220000 0.557007 0.000000
v -0.220000 0.577007 0.000000
v -0.215773 0.557007 -0.042920
v -0.215773 0.577007 -0.042920
v -0.203254 0.557007 -0.084190
v -0.203254 0.577007 -0.084190
v -0.182923 0.557007 -0.122225
v -0.182923 0.577007 -0.122225
v -0.155564 0.557007 -0.155564
v -0.155564 0.577007 -0.155564
v -0.122225 0.557007 -0.182923
v -0.122225 0.577007 -0.182923
v -0.084190 0.557007 -0.203254
v -0.084190 0.577007 -0.203254
v -0.042920 0.557007 -0.215773
v -0.042920 0.577007 -0.215773
v -0.000000 0.503864 -0.192721
v 0.000000 0.690150 -0.192721
v 0.037598 0.503864 -0.189018
v 0.037598 0.690150 -0.189018
v 0.073751 0.503864 -0.178051
v 0.073751 0.690150 -0.178051
v 0.107070 0.503864 -0.160242
v 0.107070 0.690150 -0.160242
v 0.136274 0.503864 -0.136274
v 0.136274 0.690150 -0.136274
v 0.160242 0.503864 -0.107070
v 0.160242 0.690150 -0.107070
v 0.178051 0.503864 -0.073751
v 0.178051 0.690150 -0.073751
v 0.189018 0.503864 -0.037598
v 0.189018 0.690150 -0.037598
v 0.192721 0.503864 0.000000
v 0.192721 0.690150 0.000000
v 0.189018 0.503864 0.037598
v 0.189018 0.690150 0.037598
v 0.178051 0.503864 0.073751
v 0.178051 0.690150 0.073751
v 0.160242 0.503864 0.107070
v 0.160242 0.690150 0.107070
v 0.136274 0.503864 0.136274
v 0.136274 0.690150 0.136274
v 0.107070 0.503864 0.160242
v 0.107070 0.690150 0.160242
v 0.073751 0.503864 0.178051
v 0.073751 0.690150 0.178051
v 0.037598 0.503864 0.189018
v 0.037598 0.690150 0.189018
v -0.000000 0.503864 0.192721
v 0.000000 0.690150 0.192721
v -0.037598 0.503864 0.189018
v -0.037598 0.690150 0.189018
v -0.073751 0.503864 0.178051
v -0.073751 0.690150 0.178051
v -0.107070 0.503864 0.160242
v -0.107070 0.690150 0.160242
v -0.136274 0.503864 0.136274
v -0.136274 0.690150 0.136274
v -0.160242 0.503864 0.107070
v -0.160242 0.690150 0.107070
v -0.178051 0.503864 0.073751
v -0.178051 0.690150 0.073751
v -0.189018 0.503864 0.037598
v -0.189018 0.690150 0.037598
v -0.192721 0.503864 0.000000
v -0.192721 0.690150 0.000000
v -0.189018 0.503864 -0.037598
v -0.189018 0.690150 -0.037598
v -0.178051 0.503864 -0.073751
v -0.178051 0.690150 -0.073751
v -0.160242 0.503864 -0.107070
v -0.160242 0.690150 -0.107070
v -0.136274 0.503864 -0.136274
v -0.136274 0.690150 -0.136274
v -0.107070 0.503864 -0.160242
v -0.107070 0.690150 -0.160242
v -0.073751 0.503864 -0.178051
v -0.073751 0.690150 -0.178051
v -0.037598 0.503864 -0.189018
v -0.037598 0.690150 -0.189018
v 0.000000 0.563864 -0.212721
v 0.000000 0.570150 -0.212721
v 0.041500 0.563864 -0.208634
v 0.041500 0.570150 -0.208634
v 0.081405 0.563864 -0.196529
v 0.081405 0.570150 -0.196529
v 0.118182 0.563864 -0.176871
v 0.118182 0.570150 -0.176871
v 0.150417 0.563864 -0.150417
v 0.150417 0.570150 -0.150417
v 0.176871 0.563864 -0.118182
v 0.176871 0.570150 -0.118182
v 0.196529 0.563864 -0.081405
v 0.196529 0.570150 -0.081405
v 0.208634 0.563864 -0.041500
v 0.208634 0.570150 -0.041500
v 0.212721 0.563864 0.000000
v 0.212721 0.570150 0.000000
v 0.208634 0.563864 0.041500
v 0.208634 0.570150 0.041500
v 0.196529 0.563864 0.081405
v 0.196529 0.570150 0.081405
v 0.176871 0.563864 0.118182
v 0.176871 0.570150 0.118182
v 0.150417 0.563864 0.150417
v 0.150417 0.570150 0.150417
v 0.118182 0.563864 0.176871
v 0.118182 0.570150 0.176871
v 0.081405 0.563864 0.196529
v 0.081405 0.570150 0.196529
v 0.041500 0.563864 0.208634
v 0.041500 0.570150 0.208634
v 0.000000 0.563864 0.212721
v 0.000000 0.570150 0.212721
v -0.041500 0.563864 0.208634
v -0.041500 0.570150 0.208634
v -0.081405 0.563864 0.196529
v -0.081405 0.570150 0.196529
v -0.118182 0.563864 0.176871
v -0.118182 0.570150 0.176871
v -0.150417 0.563864 0.150417
v -0.150417 0.570150 0.150417
v -0.176871 0.563864 0.118182
v -0.176871 0.570150 0.118182
v -0.196529 0.563864 0.081405
v -0.196529 0.570150 0.081405
v -0.208634 0.563864 0.041500
v -0.208634 0.570150 0.041500
v -0.212721 0.563864 0.000000
v -0.212721 0.570150 0.000000
v -0.208634 0.563864 -0.041500
v -0.208634 0.570150 -0.041500
v -0.196529 0.563864 -0.081405
v -0.196529 0.570150 -0.081405
v -0.176871 0.563864 -0.118182
v -0.176871 0.570150 -0.118182
v -0.150417 0.563864 -0.150417
v -0.150417 0.570150 -0.150417
v -0.118182 0.563864 -0.176871
v -0.118182 0.570150 -0.176871
v -0.081405 0.563864 -0.196529
v -0.081405 0.570150 -0.196529
v -0.041500 0.563864 -0.208634
v -0.041500 0.570150 -0.208634
vn -0.0000 -0.0000 -1.0000
vn 0.1951 -0.0000 -0.9808
vn 0.3827 -0.0000 -0.9239
vn 0.5556 -0.0000 -0.8315
vn 0.7071 -0.0000 -0.7071
vn 0.8315 -0.0000 -0.5556
vn 0.9239 -0.0000 -0.3827
vn 0.9808 -0.0000 -0.1951
vn 1.0000 -0.0000 -0.0000
vn 0.9808 -0.0000 0.1951
vn 0.9239 -0.0000 0.3827
vn 0.8315 -0.0000 0.5556
vn 0.7071 -0.0000 0.7071
vn 0.5556 -0.0000 0.8315
vn 0.3827 -0.0000 0.9239
vn 0.1951 -0.0000 0.9808
vn -0.0000 -0.0000 1.0000
vn -0.1951 -0.0000 0.9808
vn -0.3827 -0.0000 0.9239
vn -0.5556 -0.0000 0.8315
vn -0.7071 -0.0000 0.7071
vn -0.8315 -0.0000 0.5556
vn -0.9239 -0.0000 0.3827
vn -0.9808 -0.0000 0.1951
vn -1.0000 -0.0000 -0.0000
vn -0.9808 -0.0000 -0.1951
vn -0.9239 -0.0000 -0.3827
vn -0.8315 -0.0000 -0.5556
vn -0.7071 -0.0000 -0.7071
vn -0.5556 -0.0000 -0.8315
vn -0.3827 -0.0000 -0.9239
vn -0.0000 1.0000 -0.0000
vn -0.1951 -0.0000 -0.9808
vn -0.0000 -1.0000 -0.0000
vt 1.000000 0.500000
vt 1.000000 1.000000
vt 0.968750 1.000000
vt 0.968750 0.500000
vt 0.937500 1.000000
vt 0.937500 0.500000
vt 0.906250 1.000000
vt 0.906250 0.500000
vt 0.875000 1.000000
vt 0.875000 0.500000
vt 0.843750 1.000000
vt 0.843750 0.500000
vt 0.812500 1.000000
vt 0.812500 0.500000
vt 0.781250 1.000000
vt 0.781250 0.500000
vt 0.750000 1.000000
vt 0.750000 0.500000
vt 0.718750 1.000000
vt 0.718750 0.500000
vt 0.687500 1.000000
vt 0.687500 0.500000
vt 0.656250 1.000000
vt 0.656250 0.500000
vt 0.625000 1.000000
vt 0.625000 0.500000
vt 0.593750 1.000000
vt 0.593750 0.500000
vt 0.562500 1.000000
vt 0.562500 0.500000
vt 0.531250 1.000000
vt 0.531250 0.500000
vt 0.500000 1.000000
vt 0.500000 0.500000
vt 0.468750 1.000000
vt 0.468750 0.500000
vt 0.437500 1.000000
vt 0.437500 0.500000
vt 0.406250 1.000000
vt 0.406250 0.500000
vt 0.375000 1.000000
vt 0.375000 0.500000
vt 0.343750 1.000000
vt 0.343750 0.500000
vt 0.312500 1.000000
vt 0.312500 0.500000
vt 0.281250 1.000000
vt 0.281250 0.500000
vt 0.250000 1.000000
vt 0.250000 0.500000
vt 0.218750 1.000000
vt 0.218750 0.500000
vt 0.187500 1.000000
vt 0.187500 0.500000
vt 0.156250 1.000000
vt 0.156250 0.500000
vt 0.125000 1.000000
vt 0.125000 0.500000
vt 0.093750 1.000000
vt 0.093750 0.500000
vt 0.062500 1.000000
vt 0.062500 0.500000
vt 0.296822 0.485388
vt 0.250000 0.490000
vt 0.203178 0.485388
vt 0.158156 0.471731
vt 0.116663 0.449553
vt 0.080294 0.419706
vt 0.050447 0.383337
vt 0.028269 0.341844
vt 0.014612 0.296822
vt 0.010000 0.250000
vt 0.014612 0.203178
vt 0.028269 0.158156
vt 0.050447 0.116663
vt 0.080294 0.080294
vt 0.116663 0.050447
vt 0.158156 0.028269
vt 0.203178 0.014612
vt 0.250000 0.010000
vt 0.296822 0.014612
vt 0.341844 0.028269
vt 0.383337 0.050447
vt 0.419706 0.080294
vt 0.449553 0.116663
vt 0.471731 0.158156
vt 0.485388 0.203178
vt 0.490000 0.250000
vt 0.485388 0.296822
vt 0.471731 0.341844
vt 0.449553 0.383337
vt 0.419706 0.419706
vt 0.383337 0.449553
vt 0.341844 0.471731
vt 0.031250 1.000000
vt 0.031250 0.500000
vt 0.000000 1.000000
vt 0.000000 0.500000
vt 0.750000 0.490000
vt 0.796822 0.485388
vt 0.841844 0.471731
vt 0.883337 0.449553
vt 0.919706 0.419706
vt 0.949553 0.383337
vt 0.971731 0.341844
vt 0.985388 0.296822
vt 0.990000 0.250000
vt 0.985388 0.203178
vt 0.971731 0.158156
vt 0.949553 0.116663
vt 0.919706 0.080294
vt 0.883337 0.050447
vt 0.841844 0.028269
vt 0.796822 0.014612
vt 0.750000 0.010000
vt 0.703178 0.014612
vt 0.658156 0.028269
vt 0.616663 0.050447
vt 0.580294 0.080294
vt 0.550447 0.116663
vt 0.528269 0.158156
vt 0.514612 0.203178
vt 0.510000 0.250000
vt 0.514612 0.296822
vt 0.528269 0.341844
vt 0.550447 0.383337
vt 0.580294 0.419706
vt 0.616663 0.449553
vt 0.658156 0.471731
vt 0.703178 0.485388
vt 0.158156 0.471731
vt 0.028269 0.341844
vt 0.010000 0.250000
vt 0.028269 0.158156
vt 0.158156 0.028269
vt 0.250000 0.010000
vt 0.341844 0.028269
vt 0.471731 0.158156
vt 0.471731 0.341844
vt 0.341844 0.471731
vt 0.841844 0.471731
vt 0.841844 0.028269
vt 0.750000 0.010000
vt 0.658156 0.028269
vt 0.658156 0.471731
s 1
f 1/1/1 2/2/1 4/3/2 3/4/2
f 3/4/2 4/3/2 6/5/3 5/6/3
f 5/6/3 6/5/3 8/7/4 7/8/4
f 7/8/4 8/7/4 10/9/5 9/10/5
f 9/10/5 10/9/5 12/11/6 11/12/6
f 11/12/6 12/11/6 14/13/7 13/14/7
f 13/14/7 14/13/7 16/15/8 15/16/8
f 15/16/8 16/15/8 18/17/9 17/18/9
f 17/18/9 18/17/9 20/19/10 19/20/10
f 19/20/10 20/19/10 22/21/11 21/22/11
f 21/22/11 22/21/11 24/23/12 23/24/12
f 23/24/12 24/23/12 26/25/13 25/26/13
f 25/26/13 26/25/13 28/27/14 27/28/14
f 27/28/14 28/27/14 30/29/15 29/30/15
f 29/30/15 30/29/15 32/31/16 31/32/16
f 31/32/16 32/31/16 34/33/17 33/34/17
f 33/34/17 34/33/17 36/35/18 35/36/18
f 35/36/18 36/35/18 38/37/19 37/38/19
f 37/38/19 38/37/19 40/39/20 39/40/20
f 39/40/20 40/39/20 42/41/21 41/42/21
f 41/42/21 42/41/21 44/43/22 43/44/22
f 43/44/22 44/43/22 46/45/23 45/46/23
f 45/46/23 46/45/23 48/47/24 47/48/24
f 47/48/24 48/47/24 50/49/25 49/50/25
f 49/50/25 50/49/25 52/51/26 51/52/26
f 51/52/26 52/51/26 54/53/27 53/54/27
f 53/54/27 54/53/27 56/55/28 55/56/28
f 55/56/28 56/55/28 58/57/29 57/58/29
f 57/58/29 58/57/29 60/59/30 59/60/30
f 59/60/30 60/59/30 62/61/31 61/62/31
f 4/63/32 2/64/32 64/65/32 62/66/32 60/67/32 58/68/32 56/69/32 54/70/32 52/71/32 50/72/32 48/73/32 46/74/32 44/75/32 42/76/32 40/77/32 38/78/32 36/79/32 34/80/32 32/81/32 30/82/32 28/83/32 26/84/32 24/85/32 22/86/32 20/87/32 18/88/32 16/89/32 14/90/32 12/91/32 10/92/32 8/93/32 6/94/32
f 61/62/31 62/61/31 64/95/33 63/96/33
f 63/96/33 64/95/33 2/97/1 1/98/1
f 1/99/34 3/100/34 5/101/34 7/102/34 9/103/34 11/104/34 13/105/34 15/106/34 17/107/34 19/108/34 21/109/34 23/110/34 25/111/34 27/112/34 29/113/34 31/114/34 33/115/34 35/116/34 37/117/34 39/118/34 41/119/34 43/120/34 45/121/34 47/122/34 49/123/34 51/124/34 53/125/34 55/126/34 57/127/34 59/128/34 61/129/34 63/130/34
f 65/1/1 66/2/1 68/3/2 67/4/2
f 67/4/2 68/3/2 70/5/3 69/6/3
f 69/6/3 70/5/3 72/7/4 71/8/4
f 71/8/4 72/7/4 74/9/5 73/10/5
f 73/10/5 74/9/5 76/11/6 75/12/6
f 75/12/6 76/11/6 78/13/7 77/14/7
f 77/14/7 78/13/7 80/15/8 79/16/8
f 79/16/8 80/15/8 82/17/9 81/18/9
f 81/18/9 82/17/9 84/19/10 83/20/10
f 83/20/10 84/19/10 86/21/11 85/22/11
f 85/22/11 86/21/11 88/23/12 87/24/12
f 87/24/12 88/23/12 90/25/13 89/26/13
f 89/26/13 90/25/13 92/27/14 91/28/14
f 91/28/14 92/27/14 94/29/15 93/30/15
f 93/30/15 94/29/15 96/31/16 95/32/16
f 95/32/16 96/31/16 98/33/17 97/34/17
f 97/34/17 98/33/17 100/35/18 99/36/18
f 99/36/18 100/35/18 102/37/19 101/38/19
f 101/38/19 102/37/19 104/39/20 103/40/20
f 103/40/20 104/39/20 106/41/21 105/42/21
f 105/42/21 106/41/21 108/43/22 107/44/22
f 107/44/22 108/43/22 110/45/23 109/46/23
f 109/46/23 110/45/23 112/47/24 111/48/24
f 111/48/24 112/47/24 114/49/25 113/50/25
f 113/50/25 114/49/25 116/51/26 115/52/26
f 115/52/26 116/51/26 118/53/27 117/54/27
f 117/54/27 118/53/27 120/55/28 119/56/28
f 119/56/28 120/55/28 122/57/29 121/58/29
f 121/58/29 122/57/29 124/59/30 123/60/30
f 123/60/30 124/59/30 126/61/31 125/62/31
f 68/63/32 66/64/32 128/65/32 126/131/32 124/67/32 122/68/32 120/69/32 118/132/32 116/71/32 114/133/32 112/73/32 110/134/32 108/75/32 106/76/32 104/77/32 102/135/32 100/79/32 98/136/32 96/81/32 94/137/32 92/83/32 90/84/32 88/85/32 86/138/32 84/87/32 82/88/32 80/89/32 78/139/32 76/91/32 74/92/32 72/93/32 70/140/32
f 125/62/31 126/61/31 128/95/33 127/96/33
f 127/96/33 128/95/33 66/97/1 65/98/1
f 65/99/34 67/100/34 69/141/34 71/102/34 73/103/34 75/104/34 77/105/34 79/106/34 81/107/34 83/108/34 85/109/34 87/110/34 89/111/34 91/112/34 93/142/34 95/114/34 97/143/34 99/116/34 101/144/34 103/118/34 105/119/34 107/120/34 109/121/34 111/122/34 113/123/34 115/124/34 117/125/34 119/126/34 121/127/34 123/128/34 125/145/34 127/130/34
f 129/1/17 131/4/18 132/3/18 130/2/17
f 131/4/18 133/6/19 134/5/19 132/3/18
f 133/6/19 135/8/20 136/7/20 134/5/19
f 135/8/20 137/10/21 138/9/21 136/7/20
f 137/10/21 139/12/22 140/11/22 138/9/21
f 139/12/22 141/14/23 142/13/23 140/11/22
f 141/14/23 143/16/24 144/15/24 142/13/23
f 143/16/24 145/18/25 146/17/25 144/15/24
f 145/18/25 147/20/26 148/19/26 146/17/25
f 147/20/26 149/22/27 150/21/27 148/19/26
f 149/22/27 151/24/28 152/23/28 150/21/27
f 151/24/28 153/26/29 154/25/29 152/23/28
f 153/26/29 155/28/30 156/27/30 154/25/29
f 155/28/30 157/30/31 158/29/31 156/27/30
f 157/30/31 159/32/33 160/31/33 158/29/31
f 159/32/33 161/34/1 162/33/1 160/31/33
f 161/34/1 163/36/2 164/35/2 162/33/1
f 163/36/2 165/38/3 166/37/3 164/35/2
f 165/38/3 167/40/4 168/39/4 166/37/3
f 167/40/4 169/42/5 170/41/5 168/39/4
f 169/42/5 171/44/6 172/43/6 170/41/5
f 171/44/6 173/46/7 174/45/7 172/43/6
f 173/46/7 175/48/8 176/47/8 174/45/7
f 175/48/8 177/50/9 178/49/9 176/47/8
f 177/50/9 179/52/10 180/51/10 178/49/9
f 179/52/10 181/54/11 182/53/11 180/51/10
f 181/54/11 183/56/12 184/55/12 182/53/11
f 183/56/12 185/58/13 186/57/13 184/55/12
f 185/58/13 187/60/14 188/59/14 186/57/13
f 187/60/14 189/62/15 190/61/15 188/59/14
f 132/63/34 134/94/34 136/93/34 138/92/34 140/91/34 142/90/34 144/89/34 146/88/34 148/87/34 150/86/34 152/85/34 154/84/34 156/83/34 158/82/34 160/81/34 162/80/34 164/79/34 166/78/34 168/77/34 170/76/34 172/75/34 174/74/34 176/73/34 178/72/34 180/71/34 182/70/34 184/69/34 186/68/34 188/67/34 190/66/34 192/65/34 130/64/34
f 189/62/15 191/96/16 192/95/16 190/61/15
f 191/96/16 129/98/17 130/97/17 192/95/16
f 129/99/32 191/130/32 189/129/32 187/128/32 185/127/32 183/126/32 181/125/32 179/124/32 177/123/32 175/122/32 173/121/32 171/120/32 169/119/32 167/118/32 165/117/32 163/116/32 161/115/32 159/114/32 157/113/32 155/112/32 153/111/32 151/110/32 149/109/32 147/108/32 145/107/32 143/106/32 141/105/32 139/104/32 137/103/32 135/102/32 133/101/32 131/100/32
f 193/1/17 195/4/18 196/3/18 194/2/17
f 195/4/18 197/6/19 198/5/19 196/3/18
f 197/6/19 199/8/20 200/7/20 198/5/19
f 199/8/20 201/10/21 202/9/21 200/7/20
f 201/10/21 203/12/22 204/11/22 202/9/21
f 203/12/22 205/14/23 206/13/23 204/11/22
f 205/14/23 207/16/24 208/15/24 206/13/23
f 207/16/24 209/18/25 210/17/25 208/15/24
f 209/18/25 211/20/26 212/19/26 210/17/25
f 211/20/26 213/22/27 214/21/27 212/19/26
f 213/22/27 215/24/28 216/23/28 214/21/27
f 215/24/28 217/26/29 218/25/29 216/23/28
f 217/26/29 219/28/30 220/27/30 218/25/29
f 219/28/30 221/30/31 222/29/31 220/27/30
f 221/30/31 223/32/33 224/31/33 222/29/31
f 223/32/33 225/34/1 226/33/1 224/31/33
f 225/34/1 227/36/2 228/35/2 226/33/1
f 227/36/2 229/38/3 230/37/3 228/35/2
f 229/38/3 231/40/4 232/39/4 230/37/3
f 231/40/4 233/42/5 234/41/5 232/39/4
f 233/42/5 235/44/6 236/43/6 234/41/5
f 235/44/6 237/46/7 238/45/7 236/43/6
f 237/46/7 239/48/8 240/47/8 238/45/7
f 239/48/8 241/50/9 242/49/9 240/47/8
f 241/50/9 243/52/10 244/51/10 242/49/9
f 243/52/10 245/54/11 246/53/11 244/51/10
f 245/54/11 247/56/12 248/55/12 246/53/11
f 247/56/12 249/58/13 250/57/13 248/55/12
f 249/58/13 251/60/14 252/59/14 250/57/13
f 251/60/14 253/62/15 254/61/15 252/59/14
f 196/63/34 198/140/34 200/93/34 202/92/34 204/91/34 206/139/34 208/89/34 210/88/34 212/87/34 214/138/34 216/85/34 218/84/34 220/83/34 222/137/34 224/81/34 226/136/34 228/79/34 230/135/34 232/77/34 234/76/34 236/75/34 238/134/34 240/73/34 242/133/34 244/71/34 246/132/34 248/69/34 250/68/34 252/67/34 254/131/34 256/65/34 194/64/34
f 253/62/15 255/96/16 256/95/16 254/61/15
f 255/96/16 193/98/17 194/97/17 256/95/16
f 193/99/32 255/130/32 253/145/32 251/128/32 249/127/32 247/126/32 245/125/32 243/124/32 241/123/32 239/122/32 237/121/32 235/120/32 233/119/32 231/118/32 229/144/32 227/116/32 225/143/32 223/114/32 221/142/32 219/112/32 217/111/32 215/110/32 213/109/32 211/108/32 209/107/32 207/106/32 205/105/32 203/104/32 201/103/32 199/102/32 197/141/32 195/100/32
