# Blender 4.0.2
# www.blender.org
mtllib saltPaper.mtl
o Cube
v -0.127585 -0.234006 -0.741268
v -0.919162 0.525141 -1.189819
v 5.971369 2.531646 -8.216416
v 5.912204 3.256660 -8.344482
v 1.592109 -0.026495 1.426757
v 1.585801 0.361023 1.977515
v 7.765820 2.294202 -5.867383
v 8.699229 2.829786 -5.331191
v -0.254634 0.011021 -2.495051
v 1.820229 0.093744 1.836070
v -2.635949 0.127923 2.190829
v -0.513343 1.490448 0.598952
v 2.129557 -0.175276 -0.763264
v -0.151290 0.889321 -2.106935
v 2.190698 0.882992 2.065300
v -0.215998 -0.173482 3.415357
v -2.497862 0.890495 2.071089
v -2.553991 -0.163530 -0.754109
v -0.878769 0.157198 -0.651644
v -0.064453 0.775443 -1.731518
v -6.663591 1.239443 -7.623691
v -5.504520 2.348548 -8.663090
v -2.074334 0.080595 1.391834
v -2.075686 0.782549 1.586241
v -7.818692 0.642174 -6.044962
v -8.272396 1.078953 -5.794802
vn -0.5124 -0.5500 -0.6595
vn 0.7110 -0.2850 -0.6428
vn 0.5409 -0.8100 0.2265
vn -0.6704 -0.5142 0.5350
vn 0.2027 -0.9654 -0.1641
vn -0.1402 0.9670 0.2125
vn 0.5794 0.2714 -0.7685
vn -0.0027 -0.9946 -0.1033
vn 0.5796 -0.4662 0.6684
vn -0.9842 0.1713 -0.0443
vn -0.5752 0.3863 -0.7210
vn -0.5165 0.8056 -0.2903
vn -0.4457 0.8594 -0.2506
vn -0.4196 0.2145 0.8820
vn 0.0020 0.7858 0.6185
vn 0.0019 0.9251 0.3797
vn -0.1690 -0.9813 0.0924
vn -0.0025 -1.0000 -0.0010
vn 0.2251 -0.9661 0.1268
vn 0.8771 -0.4557 0.1515
vn 0.5442 0.7818 -0.3043
vn 0.3019 0.9384 -0.1681
vn -0.3078 0.8575 0.4123
vn 0.7511 -0.0056 0.6602
vn 0.6944 0.4850 -0.5315
vn -0.8448 0.1829 -0.5029
vn -0.0490 0.9872 0.1518
vn 0.0456 -0.9851 -0.1658
vt 0.375000 0.000000
vt 0.625000 0.000000
vt 0.625000 0.250000
vt 0.375000 0.250000
vt 0.625000 0.500000
vt 0.375000 0.500000
vt 0.625000 0.750000
vt 0.375000 0.750000
vt 0.625000 1.000000
vt 0.375000 1.000000
vt 0.125000 0.500000
vt 0.125000 0.750000
vt 0.875000 0.500000
vt 0.875000 0.750000
vt 0.250000 0.490000
vt 0.250000 0.370000
vt 0.353923 0.310000
vt 0.750000 0.490000
vt 0.853923 0.310000
vt 0.646077 0.310000
vt 0.457846 0.130000
vt 0.353923 0.190000
vt 0.250000 0.130000
vt 0.042154 0.130000
vt 0.146077 0.190000
vt 0.146077 0.310000
vt 0.250000 0.250000
vt 0.750000 0.130000
vt 0.542154 0.130000
vt 0.957846 0.130000
s 0
f 1/1/1 2/2/1 4/3/1 3/4/1
f 3/4/2 4/3/2 8/5/2 7/6/2
f 7/6/3 8/5/3 6/7/3 5/8/3
f 5/8/4 6/7/4 2/9/4 1/10/4
f 3/11/5 7/6/5 5/8/5 1/12/5
f 8/5/6 4/13/6 2/14/6 6/7/6
f 9/15/7 14/16/7 13/17/7
f 9/18/8 13/19/8 18/20/8
f 10/21/9 15/22/9 16/23/9
f 11/24/10 17/25/10 18/26/10
f 18/26/11 14/16/11 9/15/11
f 18/26/12 17/25/12 14/16/12
f 17/25/13 12/27/13 14/16/13
f 16/23/14 17/25/14 11/24/14
f 16/23/15 15/22/15 17/25/15
f 15/22/16 12/27/16 17/25/16
f 18/20/17 16/28/17 11/29/17
f 18/20/18 13/19/18 16/28/18
f 13/19/19 10/30/19 16/28/19
f 13/17/20 15/22/20 10/21/20
f 13/17/21 14/16/21 15/22/21
f 14/16/22 12/27/22 15/22/22
f 19/1/23 20/2/23 22/3/23 21/4/23
f 21/4/24 22/3/24 26/5/24 25/6/24
f 25/6/25 26/5/25 24/7/25 23/8/25
f 23/8/26 24/7/26 20/9/26 19/10/26
f 21/11/27 25/6/27 23/8/27 19/12/27
f 26/5/28 22/13/28 20/14/28 24/7/28
